#!OML:ASF H:\Terrain\Patient Classification 1\Animal2\Wednesday\Animal2.ASF
:FULLY-SPECIFIED
:DEGREES
3855
root 16.8809 15.6687 -13.617 378.406 35.5705 -356.397
lowerback 17.3928 -2.40478 0.542678
upperback -13.3124 -3.66061 -2.3158
thorax -26.3885 -1.8588 -1.68061
lowerneck 0.716143 8.08052 19.3717
upperneck -38.3585 6.89617 -27.4884
head -9.89712 3.98185 -15.2145
rclavicle 1.58382e-013 1.07344e-014
rhumerus -82.4113 -17.8114 -9.22538
rradius 18.3356
rwrist 32.8144
rhand 7.82227 18.7448
rfingers 7.12502
rthumb 33.058 -8.24312
lclavicle 1.58382e-013 1.07344e-014
lhumerus -78.1568 7.85508 28.2293
lradius 19.2016
lwrist -0.525399
lhand 6.82249 19.4777
lfingers 7.12502
lthumb 32.1067 46.6622
rfemur -22.697 0.444704 6.56731
rtibia 62.1179
rfoot -34.9242 -18.2816
rtoes -26.2851
lfemur -60.0786 -10.2185 -4.92877
ltibia 60.9858
lfoot -24.5188 -9.6722
ltoes -37.8873
3856
root 16.8861 15.6705 -13.6133 378.4 35.666 -356.321
lowerback 17.4929 -2.47842 0.472755
upperback -13.3446 -3.79671 -2.34448
thorax -26.5173 -1.90304 -1.61654
lowerneck 0.655274 8.11927 19.7233
upperneck -38.0696 6.96214 -27.6293
head -9.71523 3.9874 -15.2775
rclavicle -5.39203e-014 2.50469e-014
rhumerus -82.1831 -17.4341 -9.51441
rradius 18.3218
rwrist 32.5435
rhand 10.1687 19.2096
rfingers 7.12502
rthumb 35.2864 -7.2791
lclavicle -5.39203e-014 2.50469e-014
lhumerus -78.0667 7.34132 28.2916
lradius 19.2029
lwrist 0.256757
lhand 8.56135 20.4725
lfingers 7.12502
lthumb 33.7606 47.3091
rfemur -22.522 0.431732 6.54437
rtibia 62.0686
rfoot -34.9622 -18.2506
rtoes -26.178
lfemur -60.0424 -10.307 -4.99435
ltibia 60.9993
lfoot -24.5224 -9.79258
ltoes -37.8247
3857
root 16.8904 15.6685 -13.6068 378.394 35.6928 -356.245
lowerback 17.5871 -2.51795 0.259136
upperback -13.3909 -3.91272 -2.30347
thorax -26.6394 -1.90061 -1.39291
lowerneck 0.486142 8.17136 19.8516
upperneck -37.699 7.04718 -27.5868
head -9.50634 4.00898 -15.1834
rclavicle -5.68027e-014 2.94201e-014
rhumerus -81.9374 -17.1883 -9.26463
rradius 18.2227
rwrist 33.025
rhand 11.9394 19.8992
rfingers 7.12502
rthumb 36.9634 -6.17476
lclavicle -5.68027e-014 2.94201e-014
lhumerus -78.1176 7.00392 27.9931
lradius 19.2281
lwrist 0.94527
lhand 10.2182 21.8202
lfingers 7.12502
lthumb 35.3332 48.2978
rfemur -22.375 0.505582 6.50494
rtibia 62.0407
rfoot -34.9316 -18.3437
rtoes -26.2731
lfemur -59.9663 -10.4159 -5.04252
ltibia 61.0237
lfoot -24.4696 -9.74768
ltoes -37.8958
3858
root 16.8959 15.6668 -13.6024 378.383 35.6761 -356.211
lowerback 17.6471 -2.54435 0.111876
upperback -13.4236 -3.99209 -2.2758
thorax -26.7207 -1.89851 -1.23964
lowerneck 0.562199 8.18281 19.8847
upperneck -37.6293 7.10682 -27.4771
head -9.48584 4.02413 -15.1269
rclavicle 1.13258e-013 -3.97569e-016
rhumerus -81.7762 -17.0945 -8.70163
rradius 18.1568
rwrist 33.7498
rhand 13.2704 20.5146
rfingers 7.12502
rthumb 38.2212 -5.2241
lclavicle 1.13258e-013 -3.97569e-016
lhumerus -78.1363 6.9803 26.9571
lradius 19.1433
lwrist 1.38377
lhand 11.384 22.867
lfingers 7.12502
lthumb 36.4378 49.0747
rfemur -22.3282 0.608093 6.45304
rtibia 61.9864
rfoot -34.9979 -18.1639
rtoes -26.0024
lfemur -59.9148 -10.477 -5.09656
ltibia 61.0545
lfoot -24.4692 -9.6378
ltoes -38.0773
3859
root 16.9032 15.6669 -13.5986 378.325 35.6725 -356.23
lowerback 17.7099 -2.57009 0.080547
upperback -13.4405 -4.04182 -2.2795
thorax -26.7934 -1.91178 -1.20313
lowerneck 0.759923 8.16871 20.1633
upperneck -37.6553 7.12321 -27.6027
head -9.50224 4.01458 -15.2622
rclavicle 8.93537e-014 4.65156e-014
rhumerus -81.6084 -16.9732 -8.4111
rradius 18.1648
rwrist 33.877
rhand 14.5444 20.7174
rfingers 7.12502
rthumb 39.4226 -4.68027
lclavicle 8.93537e-014 4.65156e-014
lhumerus -78.0071 6.91116 26.0024
lradius 19.0148
lwrist 1.79786
lhand 11.9976 23.4235
lfingers 7.12502
lthumb 37.0184 49.4832
rfemur -22.2309 0.729896 6.45869
rtibia 61.9011
rfoot -35.0988 -17.9673
rtoes -25.6786
lfemur -59.7909 -10.4593 -5.17059
ltibia 61.0627
lfoot -24.6304 -9.57112
ltoes -38.2244
3860
root 16.9089 15.6685 -13.5947 378.141 35.7191 -356.424
lowerback 17.77 -2.5946 0.285793
upperback -13.4372 -4.02661 -2.33044
thorax -26.8591 -1.95263 -1.38717
lowerneck 0.785219 8.14209 20.6909
upperneck -37.5151 7.09993 -27.866
head -9.4043 3.9682 -15.4669
rclavicle 3.03147e-014 3.18055e-014
rhumerus -81.5504 -16.7538 -8.59821
rradius 18.3305
rwrist 33.5466
rhand 15.57 20.7112
rfingers 7.12502
rthumb 40.3879 -4.39664
lclavicle 3.03147e-014 3.18055e-014
lhumerus -77.7183 6.50663 25.7765
lradius 19.1414
lwrist 2.92623
lhand 11.8144 24.2055
lfingers 7.12502
lthumb 36.8452 50.3098
rfemur -22.0325 0.927385 6.68678
rtibia 61.7832
rfoot -34.7245 -18.5569
rtoes -27.2566
lfemur -59.6461 -10.4177 -5.04882
ltibia 61.0714
lfoot -24.7035 -9.63091
ltoes -37.9122
3861
root 16.9129 15.671 -13.5914 378.105 35.7193 -356.487
lowerback 17.7366 -2.58323 0.446762
upperback -13.4313 -3.99926 -2.50367
thorax -26.8627 -2.00083 -1.70354
lowerneck 0.848222 8.05286 21.2235
upperneck -37.5118 7.02304 -27.9876
head -9.40114 3.87772 -15.6473
rclavicle 5.9536e-014 5.56597e-014
rhumerus -81.7198 -16.5949 -8.78226
rradius 18.5399
rwrist 33.4292
rhand 16.0195 20.8228
rfingers 7.12502
rthumb 40.8104 -4.15352
lclavicle 5.9536e-014 5.56597e-014
lhumerus -77.2481 6.17513 25.1997
lradius 19.3219
lwrist 3.75481
lhand 11.5809 24.8974
lfingers 7.12502
lthumb 36.6241 51.0581
rfemur -21.9487 0.993214 6.76144
rtibia 61.6918
rfoot -34.2318 -19.1638
rtoes -28.934
lfemur -59.6777 -10.4172 -4.96313
ltibia 61.1012
lfoot -24.6574 -9.64778
ltoes -37.6
3862
root 16.9175 15.6739 -13.5872 378.368 35.6235 -356.197
lowerback 17.5948 -2.54678 0.232435
upperback -13.4609 -4.05451 -2.69654
thorax -26.8117 -2.01319 -1.79772
lowerneck 1.07539 7.95987 21.6029
upperneck -37.6776 6.9712 -28.002
head -9.50919 3.80702 -15.7948
rclavicle -5.20816e-014 -4.92986e-014
rhumerus -81.6947 -16.4444 -8.93742
rradius 18.6205
rwrist 33.1659
rhand 15.9971 20.7857
rfingers 7.12502
rthumb 40.7894 -4.19724
lclavicle -5.20816e-014 -4.92986e-014
lhumerus -76.8087 5.8844 24.6208
lradius 19.4618
lwrist 4.39652
lhand 11.254 24.9347
lfingers 7.12502
lthumb 36.3147 51.1733
rfemur -22.0386 0.943133 6.44671
rtibia 61.6534
rfoot -34.2573 -19.0515
rtoes -28.2329
lfemur -59.7688 -10.421 -5.22963
ltibia 61.0985
lfoot -24.6154 -9.63335
ltoes -37.4767
3863
root 16.9215 15.6787 -13.5805 378.45 35.5459 -356.055
lowerback 17.564 -2.52826 -0.0352317
upperback -13.4816 -4.11222 -2.70614
thorax -26.7987 -1.98606 -1.63255
lowerneck 1.19516 7.94819 21.8239
upperneck -37.6735 6.98914 -28.0734
head -9.50732 3.79789 -15.8821
rclavicle -1.0953e-013 -5.88403e-014
rhumerus -81.3657 -16.2737 -9.1293
rradius 18.7105
rwrist 32.5748
rhand 15.8133 20.507
rfingers 7.12502
rthumb 40.6167 -4.53
lclavicle -1.0953e-013 -5.88403e-014
lhumerus -76.6274 5.53266 24.6201
lradius 19.7044
lwrist 5.39433
lhand 9.7255 24.8183
lfingers 7.12502
lthumb 34.8659 51.4056
rfemur -22.0155 1.05038 6.29172
rtibia 61.6029
rfoot -34.5547 -18.6525
rtoes -26.871
lfemur -59.6785 -10.3907 -5.41951
ltibia 61.0579
lfoot -24.6317 -9.77235
ltoes -37.3901
3864
root 16.9257 15.6846 -13.5742 378.314 35.5923 -356.173
lowerback 17.6566 -2.56876 -0.129926
upperback -13.4893 -4.16971 -2.56142
thorax -26.8531 -1.96635 -1.37458
lowerneck 1.51342 7.95415 21.8961
upperneck -37.8973 7.03975 -28.1578
head -9.62964 3.82395 -16.0072
rclavicle 7.45443e-015 1.90833e-014
rhumerus -80.9419 -16.1891 -9.03042
rradius 18.8056
rwrist 32.2167
rhand 15.3729 20.4802
rfingers 7.12502
rthumb 40.2025 -4.6844
lclavicle 7.45443e-015 1.90833e-014
lhumerus -76.615 5.45933 24.1898
lradius 19.8673
lwrist 5.55474
lhand 8.32099 24.5244
lfingers 7.12502
lthumb 33.5322 51.4108
rfemur -21.8602 1.20307 6.43239
rtibia 61.5355
rfoot -34.6535 -18.3889
rtoes -25.7343
lfemur -59.5544 -10.4088 -5.33736
ltibia 61.0117
lfoot -24.6243 -9.8517
ltoes -37.3896
3865
root 16.929 15.6849 -13.5714 378.268 35.6972 -356.234
lowerback 17.7193 -2.62764 -0.0740849
upperback -13.5061 -4.23538 -2.54354
thorax -26.9327 -1.99905 -1.35559
lowerneck 1.88445 7.89782 21.9164
upperneck -38.2785 7.03612 -28.0875
head -9.86515 3.80873 -16.097
rclavicle -4.03533e-014 1.35174e-014
rhumerus -80.7256 -16.1682 -8.88485
rradius 18.9072
rwrist 31.964
rhand 14.745 20.2928
rfingers 7.12502
rthumb 39.6116 -5.04928
lclavicle -4.03533e-014 1.35174e-014
lhumerus -76.3493 5.28352 23.7308
lradius 19.9735
lwrist 5.59782
lhand 7.36243 24.0344
lfingers 7.12502
lthumb 32.6206 51.1139
rfemur -21.7747 1.20014 6.52568
rtibia 61.5048
rfoot -34.5724 -18.4119
rtoes -25.9302
lfemur -59.5233 -10.4324 -5.31093
ltibia 60.9559
lfoot -24.4843 -9.88934
ltoes -37.9177
3866
root 16.9285 15.6775 -13.5689 378.283 35.7968 -356.275
lowerback 17.6917 -2.65128 0.0761405
upperback -13.5048 -4.24806 -2.65801
thorax -26.9428 -2.05156 -1.57774
lowerneck 1.99283 7.81668 22.0152
upperneck -38.5047 6.97467 -27.9758
head -10.0077 3.74808 -16.133
rclavicle 4.83047e-014 5.56597e-015
rhumerus -80.7733 -16.243 -8.75665
rradius 18.9618
rwrist 31.783
rhand 13.8139 19.7758
rfingers 7.12502
rthumb 38.734 -5.81992
lclavicle 4.83047e-014 5.56597e-015
lhumerus -75.781 4.68288 24.1116
lradius 20.2369
lwrist 6.71841
lhand 5.45741 23.9673
lfingers 7.12502
lthumb 30.8062 51.4055
rfemur -21.764 1.10074 6.6173
rtibia 61.5162
rfoot -34.4897 -18.6085
rtoes -27.4243
lfemur -59.5265 -10.3727 -5.32536
ltibia 60.8923
lfoot -24.4074 -10.0305
ltoes -38.945
3867
root 16.9272 15.6748 -13.5629 378.373 35.8569 -356.224
lowerback 17.5994 -2.6499 0.0240188
upperback -13.484 -4.27274 -2.7201
thorax -26.8466 -2.06209 -1.61698
lowerneck 2.01756 7.77767 22.0728
upperneck -38.7078 6.94345 -27.9072
head -10.111 3.71087 -16.1628
rclavicle 1.12313e-014 7.95139e-016
rhumerus -80.7475 -16.4011 -8.53678
rradius 18.9842
rwrist 31.5994
rhand 12.4584 19.3457
rfingers 7.12502
rthumb 37.4542 -6.60003
lclavicle 1.12313e-014 7.95139e-016
lhumerus -75.3159 4.18263 24.5138
lradius 20.5898
lwrist 7.94742
lhand 2.86719 24.0356
lfingers 7.12502
lthumb 28.3336 51.912
rfemur -21.7601 1.00856 6.63999
rtibia 61.5359
rfoot -34.567 -18.4528
rtoes -27.1876
lfemur -59.5244 -10.3288 -5.3767
ltibia 60.8206
lfoot -24.488 -10.0841
ltoes -39.5944
